<mxfile host="app.diagrams.net" modified="2023-05-26T01:01:34.257Z" agent="Mozilla/5.0 (Windows NT 10.0; Win64; x64) AppleWebKit/537.36 (KHTML, like Gecko) Chrome/113.0.0.0 Safari/537.36" etag="oH65zcImxVPFuhByrO2g" version="21.3.3" type="device">
  <diagram name="페이지-1" id="6z6kW70XwP0wgPS8GIO7">
    <mxGraphModel dx="660" dy="622" grid="1" gridSize="10" guides="1" tooltips="1" connect="1" arrows="1" fold="1" page="1" pageScale="1" pageWidth="4681" pageHeight="3300" math="0" shadow="0">
      <root>
        <mxCell id="0" />
        <mxCell id="1" parent="0" />
        <mxCell id="wRqoI3h8y_EbXrMe-dGa-15" style="rounded=0;orthogonalLoop=1;jettySize=auto;html=1;exitX=0.5;exitY=1;exitDx=0;exitDy=0;entryX=0.5;entryY=0;entryDx=0;entryDy=0;" edge="1" parent="1" source="wRqoI3h8y_EbXrMe-dGa-1" target="wRqoI3h8y_EbXrMe-dGa-3">
          <mxGeometry relative="1" as="geometry" />
        </mxCell>
        <mxCell id="wRqoI3h8y_EbXrMe-dGa-16" style="edgeStyle=none;shape=connector;rounded=0;orthogonalLoop=1;jettySize=auto;html=1;exitX=0.5;exitY=1;exitDx=0;exitDy=0;entryX=0.5;entryY=0;entryDx=0;entryDy=0;labelBackgroundColor=default;strokeColor=default;fontFamily=Helvetica;fontSize=11;fontColor=default;endArrow=classic;" edge="1" parent="1" source="wRqoI3h8y_EbXrMe-dGa-1" target="wRqoI3h8y_EbXrMe-dGa-4">
          <mxGeometry relative="1" as="geometry" />
        </mxCell>
        <mxCell id="wRqoI3h8y_EbXrMe-dGa-17" style="edgeStyle=none;shape=connector;rounded=0;orthogonalLoop=1;jettySize=auto;html=1;exitX=0.5;exitY=1;exitDx=0;exitDy=0;entryX=0.5;entryY=0;entryDx=0;entryDy=0;labelBackgroundColor=default;strokeColor=default;fontFamily=Helvetica;fontSize=11;fontColor=default;endArrow=classic;" edge="1" parent="1" source="wRqoI3h8y_EbXrMe-dGa-1" target="wRqoI3h8y_EbXrMe-dGa-5">
          <mxGeometry relative="1" as="geometry" />
        </mxCell>
        <mxCell id="wRqoI3h8y_EbXrMe-dGa-18" style="edgeStyle=none;shape=connector;rounded=0;orthogonalLoop=1;jettySize=auto;html=1;exitX=0.5;exitY=1;exitDx=0;exitDy=0;entryX=0.5;entryY=0;entryDx=0;entryDy=0;labelBackgroundColor=default;strokeColor=default;fontFamily=Helvetica;fontSize=11;fontColor=default;endArrow=classic;" edge="1" parent="1" source="wRqoI3h8y_EbXrMe-dGa-1" target="wRqoI3h8y_EbXrMe-dGa-6">
          <mxGeometry relative="1" as="geometry" />
        </mxCell>
        <mxCell id="wRqoI3h8y_EbXrMe-dGa-19" style="edgeStyle=none;shape=connector;rounded=0;orthogonalLoop=1;jettySize=auto;html=1;exitX=0.5;exitY=1;exitDx=0;exitDy=0;entryX=0.5;entryY=0;entryDx=0;entryDy=0;labelBackgroundColor=default;strokeColor=default;fontFamily=Helvetica;fontSize=11;fontColor=default;endArrow=classic;" edge="1" parent="1" source="wRqoI3h8y_EbXrMe-dGa-1" target="wRqoI3h8y_EbXrMe-dGa-7">
          <mxGeometry relative="1" as="geometry" />
        </mxCell>
        <mxCell id="wRqoI3h8y_EbXrMe-dGa-1" value="학생정보" style="rounded=1;arcSize=10;whiteSpace=wrap;html=1;align=center;" vertex="1" parent="1">
          <mxGeometry x="310" y="120" width="100" height="40" as="geometry" />
        </mxCell>
        <mxCell id="wRqoI3h8y_EbXrMe-dGa-3" value="학번" style="ellipse;whiteSpace=wrap;html=1;align=center;fontStyle=4;" vertex="1" parent="1">
          <mxGeometry x="120" y="240" width="80" height="38" as="geometry" />
        </mxCell>
        <mxCell id="wRqoI3h8y_EbXrMe-dGa-4" value="이름" style="ellipse;whiteSpace=wrap;html=1;align=center;fontStyle=0" vertex="1" parent="1">
          <mxGeometry x="220" y="240" width="80" height="38" as="geometry" />
        </mxCell>
        <mxCell id="wRqoI3h8y_EbXrMe-dGa-5" value="전화번호" style="ellipse;whiteSpace=wrap;html=1;align=center;fontStyle=0" vertex="1" parent="1">
          <mxGeometry x="320" y="240" width="80" height="38" as="geometry" />
        </mxCell>
        <mxCell id="wRqoI3h8y_EbXrMe-dGa-6" value="학과" style="ellipse;whiteSpace=wrap;html=1;align=center;fontStyle=0" vertex="1" parent="1">
          <mxGeometry x="420" y="240" width="80" height="38" as="geometry" />
        </mxCell>
        <mxCell id="wRqoI3h8y_EbXrMe-dGa-7" value="학년" style="ellipse;whiteSpace=wrap;html=1;align=center;fontStyle=0" vertex="1" parent="1">
          <mxGeometry x="520" y="240" width="80" height="38" as="geometry" />
        </mxCell>
      </root>
    </mxGraphModel>
  </diagram>
</mxfile>
